<svg xmlns="http://www.w3.org/2000/svg" viewBox="0 0 1200 630" width="1200" height="630">
  <defs>
    <linearGradient id="bg" x1="0" y1="0" x2="0" y2="1">
      <stop offset="0%" stop-color="#f7f5f0"/>
      <stop offset="100%" stop-color="#efeadd"/>
    </linearGradient>
  </defs>

  <!-- Background -->
  <rect width="1200" height="630" fill="url(#bg)"/>

  <!-- Subtle red top stripe -->
  <rect x="0" y="0" width="1200" height="10" fill="#c8102e"/>

  <!-- Large maple leaf on the left -->
  <g transform="translate(150 175) scale(8.0)">
    <path
      fill="#c8102e"
      d="M16.02 1L13.36 5.96 12.7 6.06 10.47 5.01 11.84 12.88 11.01 12.96 7.91 9.56 6.9 11.64 2.7 10.85 3.92 15.57 2.19 16.67 8.96 22.22 9.11 23 8.49 24.96 15.46 24.23 15.34 31 16.66 30.98 16.61 24.15 23.48 24.96 22.87 22.91 23.09 22.15 29.81 16.7 28.05 15.52 29.25 10.83 25.14 11.64 24.07 9.56 20.91 13 20.18 12.93 21.5 5.01 19.45 6.01 18.67 5.99Z"
    />
  </g>

  <!-- Text block on the right -->
  <g font-family="Inter, system-ui, -apple-system, 'Segoe UI', sans-serif">
    <text x="500" y="240" fill="#1a1a1a" font-size="68" font-weight="800" letter-spacing="-1.5">
      IRCC Monitor
    </text>
    <text x="500" y="305" fill="#555555" font-size="32" font-weight="500" letter-spacing="-0.5">
      Canadian citizenship — by the numbers
    </text>

    <text x="500" y="395" fill="#1a1a1a" font-size="26" font-weight="600">
      ⏱  Community wait times, by city
    </text>
    <text x="500" y="438" fill="#1a1a1a" font-size="26" font-weight="600">
      ✓  500-question practice test bank
    </text>
    <text x="500" y="481" fill="#1a1a1a" font-size="26" font-weight="600">
      📘  Every answer cited to Discover Canada
    </text>

    <text x="500" y="555" fill="#888888" font-size="20" font-weight="500">
      irccmonitor.ca · independent, open-source data
    </text>
  </g>
</svg>
